<svg height="1200pt" preserveAspectRatio="xMidYMid meet" viewBox="0 0 1500 1200" width="1500pt" xmlns="http://www.w3.org/2000/svg"><g transform="matrix(.1 0 0 -.1 0 1200)"><path d="m2293 7995c-15-41 28-218 72-294 38-66 128-170 145-168 8 1 14-3 13-10-6-30 175-125 284-148 94-20 1528-22 1537-2 5 10 7 10 12 0 4-9 38-13 120-13 63 0 114-2 114-5 0-2-21-36-46-75-152-235-212-453-201-724 7-166 33-278 97-407 49-100 113-195 130-191 6 1 9-2 5-8-9-15 96-122 189-192 92-69 265-155 386-193 139-43 293-64 516-72l204-6v22c0 28 27 81 53 104 28 24 89 39 150 35l52-3 3-52 3-53h-43c-42 0-88-21-88-41 0-6 258-8 687-7l687 3 82 465c45 256 105 596 134 755 28 160 53 302 56 318l6 27h-804l-803-1-190-184c-104-102-189-189-188-195 2-5-3-9-10-7-6 1-11-4-9-11 1-8-1-11-6-8-12 7-135-121-127-134 4-7 208-10 636-10 555 0 629-2 629-15 0-31-51-321-61-343l-9-23-548 4c-612 4-615 5-767 76-100 47-197 136-233 214-57 123-67 283-26 420 4 13-60 82-253 272-141 139-254 257-250 261 4 5 122-106 261-245l254-254 18 34c24 46 87 143 97 147 4 2 4 9 0 15-3 7-3 9 2 5 4-4 41 23 81 60 90 83 219 151 359 189l100 27 738 6 738 5 56 60c66 71 168 179 313 330 58 61 134 142 170 180l64 70-1439 3-1440 2-182-182c-100-100-185-179-189-176-3 4 65 78 153 165 87 87 164 166 172 176 13 16-11 17-465 17h-479l178-177c154-154 189-193 173-193-2 0-87 83-190 185l-186 185h-845c-753 0-846-2-852-15z"/><path d="m8660 8003c-78-8-230-35-321-58-477-121-828-369-1050-743-27-45-49-85-49-87 0-3 104-4 232-3 147 1 233-2 235-9 2-5-39-255-92-554s-103-586-112-638l-17-94 43-38c90-80 290-184 439-228 185-55 160-54 1223-58l985-4 92 523c51 288 112 636 137 773 25 138 45 259 45 269 0 19-18 19-806 13l-806-7-179-172c-99-94-225-220-280-280l-101-108h652c530 0 651-2 647-13-3-7-18-88-33-181l-29-167-565 3-565 4-90 28c-49 15-115 41-145 59-253 143-315 479-137 744 99 149 218 244 389 312 157 62 162 63 933 62 385 0 711 2 723 6 13 3 143 132 289 287 147 154 285 300 307 324l40 42-999-2c-550 0-1016-3-1035-5z"/><path d="m2950 7258c0-62 26-162 60-233 46-95 153-225 193-233 4-1 16-11 27-22 12-12 26-18 32-14s8 3 5-3c-8-13 93-60 168-77 33-8 90-16 126-19l66-4 299 301c164 166 308 311 318 324l19 22h-656-657z"/><path d="m3971 6975-324-325 314 2 314 3 8 55c32 226 72 359 153 502 24 43 44 80 44 83s-42 5-93 5h-93z"/><path d="m3600 6563c1-61 32-173 71-253 34-69 58-101 128-170 152-150 232-179 506-187l190-6-26 34c-14 19-39 60-56 91-17 32-34 54-38 50-5-4-5-2-2 4 4 7-2 33-14 58-31 72-67 224-75 320l-7 86h-338-339z"/><path d="m8122 5139c-325-42-510-256-551-639-6-47-8-337-7-645 3-527 4-565 24-646 78-325 276-508 550-509h62v165c0 142-2 165-15 165-25 0-88 36-117 67-44 46-69 116-80 224-5 59-8 334-6 672 4 557 5 574 26 638 29 88 87 154 150 172l47 14v163c0 101-4 164-10 165-5 1-38-1-73-6z"/><path d="m8270 4985v-164l42-12c59-15 119-79 148-154 20-52 24-84 28-232 4-165 5-172 26-177 11-3 102-4 201-3l180 2-1 147c-5 465-194 716-566 752l-58 6z"/><path d="m10090 5135c-252-39-411-178-488-425-44-141-47-186-47-805 0-534 2-598 18-675 73-337 274-529 555-530h62v164 164l-36 7c-48 9-116 73-143 134-11 27-25 80-31 118-12 87-13 1164 0 1261 18 135 81 230 171 256l44 13v163c0 101-4 164-10 166-5 1-48-4-95-11z"/><path d="m10260 4986v-165l41-11c22-6 57-27 78-46 74-66 100-172 101-397v-127l203 2 202 3 1 100c3 195-28 360-92 492-42 88-141 193-221 236-58 31-170 62-256 71l-57 6z"/><path d="m11866 5081c-4-37-6-111-5-164l1-97 42-11c127-34 175-145 179-411l3-152 202-3 202-3v123c0 489-185 740-576 780l-42 5z"/><path d="m11623 5120c-235-62-384-229-439-493-25-121-31-269-33-717-1-453 7-604 40-734 74-295 280-476 541-476h68v163 163l-47 12c-65 18-123 79-149 158-18 56-19 92-19 724 0 736-2 717 65 809 31 42 93 81 130 81 19 0 20 6 20 165v165l-52-1c-29 0-85-9-125-19z"/><path d="m6034 5101c-2-2-4-535-4-1183v-1178h180 180v1114 1114l-29 68-29 68h-147c-81 1-149-1-151-3z"/><path d="m6968 5102-28-3v-1112-1112l27-67 26-68h149 148v1183 1183h-147c-82-1-160-2-175-4z"/><path d="m1930 3920v-1180h210 210v1180 1180h-210-210z"/><path d="m2420 4955v-145l232 2 233 3 3 109c2 59 1 123-3 142l-6 34h-229-230z"/><path d="m3050 3920v-1180h210 210v1180 1180h-210-210z"/><path d="m3841 5033c11-38 114-398 229-800l210-733v-380-380h205 205v222 223l-231 920c-126 506-235 937-240 958l-10 37h-194-194z"/><path d="m4672 5028c-6-40-43-257-82-483l-71-410 83-333c45-182 85-326 89-320 8 17 449 1593 449 1607 0 8-71 11-228 11h-228z"/><path d="m5300 3920v-1180h210 210v1180 1180h-210-210z"/><path d="m6450 4405v-400l207-472c115-260 211-473 214-473s5 188 5 418l-1 417-131 285c-73 157-164 357-204 445s-77 164-81 170c-5 5-9-166-9-390z"/><path d="m2420 3963v-153h155 156l-3 153-3 152h-152-153z"/><path d="m8320 3785v-155h86 86l-4-192c-4-171-7-200-28-253-30-78-92-140-152-152l-43-9-3-158-3-159 33 7c67 13 162 69 224 131l61 62 29-84 29-83h137 138v600 600h-295-295z"/><path d="m10310 3785v-155h85 85v-157c0-100-6-183-15-227-25-119-87-196-171-214l-39-8-2-128c-1-71 1-142 4-158 5-26 9-29 32-23 67 15 158 71 217 131l60 62 28-84 27-84h140 139v600 600h-295-295z"/><path d="m11914 3926c-3-8-4-77-2-153l3-138 84-5 84-5-2-178c-3-225-18-287-90-359-36-36-57-49-89-54l-42-7v-159-160l28 6c70 17 171 77 225 136l56 60 15-43c9-23 22-60 30-82l13-40 141-3 142-3v601 600h-295c-247 0-297-2-301-14z"/><path d="m3548 3033c-16-4-18-20-18-149v-144h225 225v149 149h-207c-115 0-216-3-225-5z"/></g></svg>